<?xml version="1.0" encoding="UTF-8" standalone="no"?>
<!DOCTYPE svg PUBLIC "-//W3C//DTD SVG 1.1//EN"
 "http://www.w3.org/Graphics/SVG/1.1/DTD/svg11.dtd">
<!-- Generated by graphviz version 2.47.1 (20210515.0534)
 -->
<!-- Title: application_state_diagram Pages: 1 -->
<svg width="744pt" height="296pt"
 viewBox="0.00 0.00 743.73 296.00" xmlns="http://www.w3.org/2000/svg" xmlns:xlink="http://www.w3.org/1999/xlink">
<g id="graph0" class="graph" transform="scale(1 1) rotate(0) translate(4 292)">
<title>application_state_diagram</title>
<g id="a_graph0"><a xlink:href="index.html" xlink:title="Hoge ALPS Blog" target="_parent">
<polygon fill="white" stroke="transparent" points="-4,4 -4,-292 739.73,-292 739.73,4 -4,4"/>
<text text-anchor="middle" x="367.86" y="-272.8" font-family="Helvetica,sans-Serif" font-size="14.00">Hoge ALPS Blog</text>
</a>
</g>
<!-- Blog -->
<g id="node1" class="node">
<title>Blog</title>
<g id="a_node1"><a xlink:href="docs/semantic.Blog.html" xlink:title="&lt;TABLE&gt;" target="_parent">
<polygon fill="lightgray" stroke="black" stroke-width="2" points="384.73,-179 274.73,-179 274.73,-137 384.73,-137 384.73,-179"/>
<text text-anchor="start" x="314.23" y="-161.8" font-family="Times,serif" font-size="14.00">Blog</text>
<text text-anchor="start" x="280.73" y="-146.8" font-family="Times,serif" font-size="14.00">(BlogPosting)</text>
</a>
</g>
</g>
<!-- Blog&#45;&gt;Blog -->
<g id="edge3" class="edge">
<title>Blog&#45;&gt;Blog</title>
<g id="a_edge3"><a xlink:href="docs/unsafe.doPost.html" xlink:title="doPost, collection (unsafe)" target="_parent">
<path fill="none" stroke="black" d="M384.8,-166.21C395.3,-165.23 402.73,-162.49 402.73,-158 402.73,-155.12 399.68,-152.96 394.73,-151.53"/>
<polygon fill="black" stroke="black" points="395.25,-148.07 384.8,-149.79 394.05,-154.96 395.25,-148.07"/>
</a>
</g>
<g id="a_edge3&#45;label"><a xlink:href="docs/unsafe.doPost.html" xlink:title="doPost, collection (unsafe)" target="_parent">
<text text-anchor="start" x="402.73" y="-154.6" font-family="Times,serif" font-size="13.00">doPost, collection (unsafe)</text>
</a>
</g>
</g>
<!-- BlogPosting -->
<g id="node2" class="node">
<title>BlogPosting</title>
<g id="a_node2"><a xlink:href="docs/semantic.BlogPosting.html" xlink:title="&lt;TABLE&gt;" target="_parent">
<polygon fill="lightgray" stroke="black" stroke-width="2" points="170.73,-87 60.73,-87 60.73,0 170.73,0 170.73,-87"/>
<text text-anchor="start" x="74.23" y="-69.3" font-family="Times,serif" font-size="14.00">BlogPosting</text>
<text text-anchor="start" x="100.23" y="-54.3" font-family="Times,serif" font-size="14.00">(id)</text>
<text text-anchor="start" x="66.73" y="-39.3" font-family="Times,serif" font-size="14.00">(dateCreated)</text>
<text text-anchor="start" x="66.73" y="-24.3" font-family="Times,serif" font-size="14.00">(articleBody)</text>
<text text-anchor="start" x="92.73" y="-9.3" font-family="Times,serif" font-size="14.00">(hoge)</text>
</a>
</g>
</g>
<!-- Blog&#45;&gt;BlogPosting -->
<g id="edge4" class="edge">
<title>Blog&#45;&gt;BlogPosting</title>
<g id="a_edge4"><a xlink:href="docs/safe.goBlogPosting.html" xlink:title="goBlogPosting, item (safe)" target="_parent">
<path fill="none" stroke="black" d="M274.4,-154.43C186.78,-149.79 24.17,-138.62 6.73,-119 -13.67,-96.06 17.1,-76.74 51.08,-63.52"/>
<polygon fill="black" stroke="black" points="52.55,-66.71 60.71,-59.96 50.12,-60.15 52.55,-66.71"/>
</a>
</g>
<g id="a_edge4&#45;label"><a xlink:href="docs/safe.goBlogPosting.html" xlink:title="goBlogPosting, item (safe)" target="_parent">
<text text-anchor="start" x="6.73" y="-108.6" font-family="Times,serif" font-size="13.00">goBlogPosting, item (safe)</text>
</a>
</g>
</g>
<!-- About -->
<g id="node3" class="node">
<title>About</title>
<g id="a_node3"><a xlink:href="docs/semantic.About.html" xlink:title="About" target="_parent">
<polygon fill="lightgray" stroke="black" stroke-width="2" points="526.73,-61.5 472.73,-61.5 472.73,-25.5 526.73,-25.5 526.73,-61.5"/>
<text text-anchor="middle" x="499.73" y="-39.8" font-family="Times,serif" font-size="14.00">About</text>
</a>
</g>
</g>
<!-- Blog&#45;&gt;About -->
<g id="edge2" class="edge">
<title>Blog&#45;&gt;About</title>
<g id="a_edge2"><a xlink:href="docs/safe.goAbout.html" xlink:title="goAbout (safe)" target="_parent">
<path fill="none" stroke="black" d="M380.28,-136.99C391.61,-131.73 403.35,-125.64 413.73,-119 426.12,-111.07 453.21,-87.14 473.7,-68.52"/>
<polygon fill="black" stroke="black" points="476.16,-71.01 481.18,-61.69 471.44,-65.84 476.16,-71.01"/>
</a>
</g>
<g id="a_edge2&#45;label"><a xlink:href="docs/safe.goAbout.html" xlink:title="goAbout (safe)" target="_parent">
<text text-anchor="start" x="430.73" y="-108.6" font-family="Times,serif" font-size="13.00">goAbout (safe)</text>
</a>
</g>
</g>
<!-- BlogPosting&#45;&gt;Blog -->
<g id="edge5" class="edge">
<title>BlogPosting&#45;&gt;Blog</title>
<g id="a_edge5"><a xlink:href="docs/safe.goBlog.html" xlink:title="goBlog, collection (safe)" target="_parent">
<path fill="none" stroke="black" d="M171.12,-82.68C181.65,-90.04 192.56,-97.72 202.73,-105 211.26,-111.11 212.46,-114.09 221.73,-119 235.27,-126.17 250.46,-132.47 265.07,-137.77"/>
<polygon fill="black" stroke="black" points="263.96,-141.09 274.56,-141.11 266.29,-134.49 263.96,-141.09"/>
</a>
</g>
<g id="a_edge5&#45;label"><a xlink:href="docs/safe.goBlog.html" xlink:title="goBlog, collection (safe)" target="_parent">
<text text-anchor="start" x="221.73" y="-108.6" font-family="Times,serif" font-size="13.00">goBlog, collection (safe)</text>
</a>
</g>
</g>
<!-- About&#45;&gt;Blog -->
<g id="edge1" class="edge">
<title>About&#45;&gt;Blog</title>
<g id="a_edge1"><a xlink:href="docs/safe.goBlog.html" xlink:title="goBlog, collection (safe)" target="_parent">
<path fill="none" stroke="black" d="M521.13,-61.55C538.44,-77.38 557.68,-101.14 542.73,-119 524.11,-141.23 450.48,-150.47 394.96,-154.3"/>
<polygon fill="black" stroke="black" points="394.57,-150.82 384.82,-154.95 395.02,-157.8 394.57,-150.82"/>
</a>
</g>
<g id="a_edge1&#45;label"><a xlink:href="docs/safe.goBlog.html" xlink:title="goBlog, collection (safe)" target="_parent">
<text text-anchor="start" x="547.73" y="-108.6" font-family="Times,serif" font-size="13.00">goBlog, collection (safe)</text>
</a>
</g>
</g>
<!-- Index -->
<g id="node4" class="node">
<title>Index</title>
<g id="a_node4"><a xlink:href="docs/semantic.Index.html" xlink:title="Index" target="_parent">
<polygon fill="lightgray" stroke="black" stroke-width="2" points="356.73,-265 302.73,-265 302.73,-229 356.73,-229 356.73,-265"/>
<text text-anchor="middle" x="329.73" y="-243.3" font-family="Times,serif" font-size="14.00">Index</text>
</a>
</g>
</g>
<!-- Index&#45;&gt;Blog -->
<g id="edge6" class="edge">
<title>Index&#45;&gt;Blog</title>
<g id="a_edge6"><a xlink:href="docs/safe.goBlog.html" xlink:title="goBlog, collection (safe)" target="_parent">
<path fill="none" stroke="black" d="M329.73,-228.81C329.73,-217.56 329.73,-202.54 329.73,-189.32"/>
<polygon fill="black" stroke="black" points="333.23,-189.21 329.73,-179.21 326.23,-189.21 333.23,-189.21"/>
</a>
</g>
<g id="a_edge6&#45;label"><a xlink:href="docs/safe.goBlog.html" xlink:title="goBlog, collection (safe)" target="_parent">
<text text-anchor="start" x="329.73" y="-200.6" font-family="Times,serif" font-size="13.00">goBlog, collection (safe)</text>
</a>
</g>
</g>
</g>
</svg>
